<svg width="46" height="45" viewBox="0 0 46 45" fill="none" xmlns="http://www.w3.org/2000/svg">
<path d="M23 1.5V33.7677C23 34.5281 22.5871 35.2284 21.9217 35.5965L13.878 40.0464C12.3948 40.8669 10.6031 39.6735 10.7888 37.9886L11.8864 28.0303C11.958 27.3811 11.722 26.7358 11.2485 26.286L4.60105 19.9709C3.43985 18.8678 3.90008 16.9221 5.43245 16.4561L16.2347 13.1711C16.7858 13.0035 17.2434 12.6158 17.4992 12.0996L22.778 1.448C22.8329 1.33708 23 1.37621 23 1.5Z" fill="#FFBD12"/>
<path d="M30.7464 13.1741L26.6482 4.87167C25.1149 1.76523 20.6851 1.76524 19.1518 4.87168L15.0536 13.1741L5.88563 14.5142C2.45839 15.0151 1.09244 19.2279 3.57366 21.6446L10.2042 28.1028L8.63985 37.224C8.05416 40.6389 11.6387 43.2429 14.7053 41.6302L22.9 37.3207L31.0947 41.6302C34.1613 43.2429 37.7458 40.6389 37.1601 37.224L35.5957 28.1028L42.2263 21.6446C44.7076 19.2279 43.3416 15.0151 39.9144 14.5142L30.7464 13.1741Z" stroke="#F2994A" stroke-width="4.18" stroke-linecap="round" stroke-linejoin="round"/>
</svg>
